<svg aria-hidden="true" style="position: absolute; width: 0; height: 0; overflow: hidden;" version="1.1" xmlns="http://www.w3.org/2000/svg" xmlns:xlink="http://www.w3.org/1999/xlink">
<defs>

<symbol id="icon-search" viewBox="0 0 32 32">
    <path d="M30.786 26.636c0.53 0.53 0.859 1.264 0.859 2.075 0 1.62-1.314 2.933-2.933 2.933-0.811 0-1.543-0.329-2.075-0.86v0l-8.597-8.596c-1.746 1.031-3.776 1.634-5.95 1.634-6.48 0-11.733-5.253-11.733-11.733s5.253-11.733 11.733-11.733c6.48 0 11.733 5.253 11.733 11.733 0 2.174-0.603 4.204-1.634 5.95l8.597 8.597zM12.089 3.287c-4.86 0-8.8 3.941-8.8 8.802s3.94 8.8 8.8 8.8c4.86 0 8.8-3.94 8.8-8.8s-3.94-8.802-8.8-8.802z"></path>
</symbol>

<symbol id="icon-shopping" viewBox="0 0 38 32">
    <path d="M37.815 7.814h0.002l-5.28 11.733c-0.26 0.578-0.823 0.99-1.487 1.035v0l-15.206 1.013 0.879 2.509h16.557c1.943 0 3.52 1.577 3.52 3.522 0 1.943-1.577 3.52-3.52 3.52s-3.52-1.577-3.52-3.52h-16.427c0 1.943-1.577 3.52-3.52 3.52s-3.52-1.577-3.52-3.52c0-1.946 1.577-3.522 3.52-3.522h3.181l-6.775-19.358h-4.032c-0.973 0-1.76-0.789-1.76-1.76 0-0.973 0.787-1.76 1.76-1.76h5.28c0.768 0 1.414 0.495 1.655 1.18l0.006-0.002 1.024 2.929h26.061c0.973 0 1.76 0.787 1.76 1.76 0 0.256-0.058 0.499-0.158 0.721zM11.386 8.853l3.253 9.295 15.123-1.009 3.729-8.286h-22.106z"></path>
</symbol>

</defs>
</svg>
